<svg width="1280" height="720" xmlns="http://www.w3.org/2000/svg" xmlns:xlink="http://www.w3.org/1999/xlink" overflow="hidden"><defs><clipPath id="clip0"><rect x="0" y="0" width="1280" height="720"/></clipPath><clipPath id="clip1"><rect x="68" y="19" width="82" height="225"/></clipPath><clipPath id="clip2"><rect x="149" y="19" width="151" height="225"/></clipPath><clipPath id="clip3"><rect x="469" y="19" width="161" height="225"/></clipPath><clipPath id="clip4"><rect x="629" y="19" width="174" height="225"/></clipPath><clipPath id="clip5"><rect x="802" y="19" width="448" height="225"/></clipPath><clipPath id="clip6"><rect x="68" y="60" width="82" height="225"/></clipPath><clipPath id="clip7"><rect x="149" y="60" width="151" height="225"/></clipPath><clipPath id="clip8"><rect x="629" y="60" width="174" height="225"/></clipPath><clipPath id="clip9"><rect x="802" y="60" width="448" height="225"/></clipPath><clipPath id="clip10"><rect x="68" y="102" width="82" height="225"/></clipPath><clipPath id="clip11"><rect x="149" y="102" width="151" height="225"/></clipPath><clipPath id="clip12"><rect x="629" y="102" width="174" height="225"/></clipPath><clipPath id="clip13"><rect x="802" y="102" width="448" height="225"/></clipPath><clipPath id="clip14"><rect x="68" y="144" width="82" height="224"/></clipPath><clipPath id="clip15"><rect x="149" y="144" width="151" height="224"/></clipPath><clipPath id="clip16"><rect x="629" y="144" width="174" height="224"/></clipPath><clipPath id="clip17"><rect x="802" y="144" width="448" height="224"/></clipPath><clipPath id="clip18"><rect x="160" y="292" width="104" height="225"/></clipPath><clipPath id="clip19"><rect x="263" y="292" width="129" height="225"/></clipPath><clipPath id="clip20"><rect x="750" y="292" width="179" height="225"/></clipPath><clipPath id="clip21"><rect x="928" y="292" width="230" height="225"/></clipPath><clipPath id="clip22"><rect x="160" y="334" width="104" height="225"/></clipPath><clipPath id="clip23"><rect x="263" y="334" width="129" height="225"/></clipPath><clipPath id="clip24"><rect x="750" y="334" width="179" height="225"/></clipPath><clipPath id="clip25"><rect x="928" y="334" width="230" height="225"/></clipPath><clipPath id="clip26"><rect x="160" y="397" width="104" height="225"/></clipPath><clipPath id="clip27"><rect x="263" y="397" width="129" height="225"/></clipPath><clipPath id="clip28"><rect x="750" y="397" width="179" height="225"/></clipPath><clipPath id="clip29"><rect x="928" y="397" width="230" height="225"/></clipPath><clipPath id="clip30"><rect x="160" y="439" width="104" height="225"/></clipPath><clipPath id="clip31"><rect x="263" y="439" width="129" height="225"/></clipPath><clipPath id="clip32"><rect x="750" y="439" width="179" height="225"/></clipPath><clipPath id="clip33"><rect x="928" y="439" width="230" height="225"/></clipPath><clipPath id="clip34"><rect x="160" y="487" width="104" height="225"/></clipPath><clipPath id="clip35"><rect x="263" y="487" width="129" height="225"/></clipPath><clipPath id="clip36"><rect x="750" y="487" width="179" height="225"/></clipPath><clipPath id="clip37"><rect x="928" y="487" width="230" height="225"/></clipPath><clipPath id="clip38"><rect x="160" y="534" width="104" height="225"/></clipPath><clipPath id="clip39"><rect x="263" y="534" width="129" height="225"/></clipPath><clipPath id="clip40"><rect x="750" y="534" width="179" height="225"/></clipPath><clipPath id="clip41"><rect x="928" y="534" width="230" height="225"/></clipPath></defs><g clip-path="url(#clip0)"><rect x="0" y="0" width="1280" height="720" fill="#FFFFFF"/><path d="M68.7412 110.4 149.275 110.4 149.275 152 68.7412 152Z" fill-rule="evenodd"/><path d="M149.275 110.4 299.878 110.4 299.878 152 149.275 152Z" fill-rule="evenodd"/><path d="M299.878 110.4 469.445 110.4 469.445 152 299.878 152Z" fill-rule="evenodd"/><path d="M469.445 110.4 629.606 110.4 629.606 152 469.445 152Z" fill-rule="evenodd"/><path d="M629.606 110.4 802.606 110.4 802.606 152 629.606 152Z" fill-rule="evenodd"/><path d="M802.606 110.4 1249.61 110.4 1249.61 152 802.606 152Z" fill-rule="evenodd"/><path d="M68.7412 152 149.275 152 149.275 193.6 68.7412 193.6Z" fill="#34599C" fill-rule="evenodd"/><path d="M149.275 152 299.878 152 299.878 193.6 149.275 193.6Z" fill="#34599C" fill-rule="evenodd"/><path d="M299.878 152 469.445 152 469.445 193.6 299.878 193.6Z" fill="#34599C" fill-rule="evenodd"/><path d="M469.445 152 629.606 152 629.606 193.6 469.445 193.6Z" fill="#34599C" fill-rule="evenodd"/><path d="M629.606 152 802.606 152 802.606 193.6 629.606 193.6Z" fill="#34599C" fill-rule="evenodd"/><path d="M802.606 152 1249.61 152 1249.61 193.6 802.606 193.6Z" fill="#34599C" fill-rule="evenodd"/><path d="M68.7412 193.6 149.275 193.6 149.275 235.2 68.7412 235.2Z" fill="#4472C4" fill-rule="evenodd"/><path d="M149.275 193.6 299.878 193.6 299.878 235.2 149.275 235.2Z" fill="#4472C4" fill-rule="evenodd"/><path d="M299.878 193.6 469.445 193.6 469.445 235.2 299.878 235.2Z" fill="#4472C4" fill-rule="evenodd"/><path d="M469.445 193.6 629.606 193.6 629.606 235.2 469.445 235.2Z" fill="#4472C4" fill-rule="evenodd"/><path d="M629.606 193.6 802.606 193.6 802.606 235.2 629.606 235.2Z" fill="#4472C4" fill-rule="evenodd"/><path d="M802.606 193.6 1249.61 193.6 1249.61 235.2 802.606 235.2Z" fill="#4472C4" fill-rule="evenodd"/><path d="M68.7412 235.2 149.275 235.2 149.275 276.8 68.7412 276.8Z" fill="#34599C" fill-rule="evenodd"/><path d="M149.275 235.2 299.878 235.2 299.878 276.8 149.275 276.8Z" fill="#34599C" fill-rule="evenodd"/><path d="M299.878 235.2 469.445 235.2 469.445 276.8 299.878 276.8Z" fill="#34599C" fill-rule="evenodd"/><path d="M469.445 235.2 629.606 235.2 629.606 276.8 469.445 276.8Z" fill="#34599C" fill-rule="evenodd"/><path d="M629.606 235.2 802.606 235.2 802.606 276.8 629.606 276.8Z" fill="#34599C" fill-rule="evenodd"/><path d="M802.606 235.2 1249.61 235.2 1249.61 276.8 802.606 276.8Z" fill="#34599C" fill-rule="evenodd"/><path d="M68.7412 152 1249.61 152" stroke="#FFFFFF" stroke-width="2.66667" stroke-linejoin="round" stroke-miterlimit="10" fill="none" fill-rule="evenodd"/><g clip-path="url(#clip1)"><text fill="#FFFFFF" font-family="Calibri,Calibri_MSFontService,sans-serif" font-weight="700" font-size="27" transform="translate(78.3412 140)">Rank</text></g><g clip-path="url(#clip2)"><text fill="#FFFFFF" font-family="Calibri,Calibri_MSFontService,sans-serif" font-weight="700" font-size="27" transform="translate(158.875 140)">Name</text></g><text fill="#FFFFFF" font-family="Calibri,Calibri_MSFontService,sans-serif" font-weight="700" font-size="27" transform="translate(335.008 140)">Key code</text><g clip-path="url(#clip3)"><text fill="#FFFFFF" font-family="Calibri,Calibri_MSFontService,sans-serif" font-weight="700" font-size="27" transform="translate(483.226 140)">Total supply</text></g><g clip-path="url(#clip4)"><text fill="#FFFFFF" font-family="Calibri,Calibri_MSFontService,sans-serif" font-weight="700" font-size="27" transform="translate(639.206 140)">Release date</text></g><g clip-path="url(#clip5)"><text fill="#FFFFFF" font-family="Calibri,Calibri_MSFontService,sans-serif" font-weight="700" font-size="27" transform="translate(812.206 140)">Creator</text></g><g clip-path="url(#clip6)"><text fill="#FFFFFF" font-family="Calibri,Calibri_MSFontService,sans-serif" font-weight="400" font-size="27" transform="translate(78.3412 182)">1</text></g><g clip-path="url(#clip7)"><text fill="#FFFFFF" font-family="Calibri,Calibri_MSFontService,sans-serif" font-weight="400" font-size="27" transform="translate(158.875 182)">Bitcoin</text></g><text fill="#FFFFFF" font-family="Calibri,Calibri_MSFontService,sans-serif" font-weight="400" font-size="27" transform="translate(364.415 182)">BTC<tspan font-size="27" x="124.444" y="0">21,000,000</tspan></text><g clip-path="url(#clip8)"><text fill="#FFFFFF" font-family="Calibri,Calibri_MSFontService,sans-serif" font-weight="400" font-size="27" transform="translate(639.206 182)">2009</text></g><text fill="#FFFFFF" font-family="Calibri,Calibri_MSFontService,sans-serif" font-weight="400" font-size="27" transform="translate(693.206 182)">-<tspan font-size="27" x="8.16669" y="0">01</tspan>-<tspan font-size="27" x="43.3334" y="0">03</tspan></text><g clip-path="url(#clip9)"><text fill="#FFFFFF" font-family="Calibri,Calibri_MSFontService,sans-serif" font-weight="400" font-size="27" transform="translate(812.206 182)">Satoshi Nakamoto</text></g><g clip-path="url(#clip10)"><text fill="#FFFFFF" font-family="Calibri,Calibri_MSFontService,sans-serif" font-weight="400" font-size="27" transform="translate(78.3412 223)">2</text></g><g clip-path="url(#clip11)"><text fill="#FFFFFF" font-family="Calibri,Calibri_MSFontService,sans-serif" font-weight="400" font-size="27" transform="translate(158.875 223)">Ethereum</text></g><text fill="#FFFFFF" font-family="Calibri,Calibri_MSFontService,sans-serif" font-weight="400" font-size="27" transform="translate(363.328 223)">ETH<tspan font-size="27" x="174.864" y="0">∞</tspan></text><g clip-path="url(#clip12)"><text fill="#FFFFFF" font-family="Calibri,Calibri_MSFontService,sans-serif" font-weight="400" font-size="27" transform="translate(639.206 223)">2015</text></g><text fill="#FFFFFF" font-family="Calibri,Calibri_MSFontService,sans-serif" font-weight="400" font-size="27" transform="translate(693.206 223)">-<tspan font-size="27" x="8.16669" y="0">07</tspan>-<tspan font-size="27" x="43.3334" y="0">30</tspan></text><g clip-path="url(#clip13)"><text fill="#FFFFFF" font-family="Calibri,Calibri_MSFontService,sans-serif" font-weight="400" font-size="27" transform="translate(812.206 223)">Vitalik</text></g><text fill="#FFFFFF" font-family="Calibri,Calibri_MSFontService,sans-serif" font-weight="400" font-size="27" transform="translate(885.546 223)">Buterin</text><g clip-path="url(#clip14)"><text fill="#FFFFFF" font-family="Calibri,Calibri_MSFontService,sans-serif" font-weight="400" font-size="27" transform="translate(78.3412 265)">3</text></g><g clip-path="url(#clip15)"><text fill="#FFFFFF" font-family="Calibri,Calibri_MSFontService,sans-serif" font-weight="400" font-size="27" transform="translate(158.875 265)">Tether</text></g><text fill="#FFFFFF" font-family="Calibri,Calibri_MSFontService,sans-serif" font-weight="400" font-size="27" transform="translate(355.395 265)">USDT<tspan font-size="27" x="182.798" y="0">∞</tspan></text><g clip-path="url(#clip16)"><text fill="#FFFFFF" font-family="Calibri,Calibri_MSFontService,sans-serif" font-weight="400" font-size="27" transform="translate(639.206 265)">2014</text></g><text fill="#FFFFFF" font-family="Calibri,Calibri_MSFontService,sans-serif" font-weight="400" font-size="27" transform="translate(693.206 265)">-<tspan font-size="27" x="8.16669" y="0">07</tspan>-<tspan font-size="27" x="43.3334" y="0">20</tspan></text><g clip-path="url(#clip17)"><text fill="#FFFFFF" font-family="Calibri,Calibri_MSFontService,sans-serif" font-weight="400" font-size="27" transform="translate(812.206 265)">Brock</text></g><text fill="#FFFFFF" font-family="Calibri,Calibri_MSFontService,sans-serif" font-weight="400" font-size="27" transform="translate(879.113 265)">Pierce,Craig<tspan font-size="27" x="134.06" y="0">Sellars,Reeve</tspan><tspan font-size="27" x="282.58" y="0">Collins</tspan></text><path d="M160.457 383.882 263.89 383.882 263.89 425.482 160.457 425.482Z" fill-rule="evenodd"/><path d="M263.89 383.882 391.89 383.882 391.89 425.482 263.89 425.482Z" fill-rule="evenodd"/><path d="M391.89 383.882 542.89 383.882 542.89 425.482 391.89 425.482Z" fill-rule="evenodd"/><path d="M542.89 383.882 750.89 383.882 750.89 425.482 542.89 425.482Z" fill-rule="evenodd"/><path d="M750.89 383.882 928.89 383.882 928.89 425.482 750.89 425.482Z" fill-rule="evenodd"/><path d="M928.89 383.882 1157.89 383.882 1157.89 425.482 928.89 425.482Z" fill-rule="evenodd"/><path d="M160.457 425.482 263.89 425.482 263.89 489.174 160.457 489.174Z" fill="#588937" fill-rule="evenodd"/><path d="M263.89 425.482 391.89 425.482 391.89 489.174 263.89 489.174Z" fill="#588937" fill-rule="evenodd"/><path d="M391.89 425.482 542.89 425.482 542.89 489.174 391.89 489.174Z" fill="#588937" fill-rule="evenodd"/><path d="M542.89 425.482 750.89 425.482 750.89 489.174 542.89 489.174Z" fill="#588937" fill-rule="evenodd"/><path d="M750.89 425.482 928.89 425.482 928.89 489.174 750.89 489.174Z" fill="#588937" fill-rule="evenodd"/><path d="M928.89 425.482 1157.89 425.482 1157.89 489.174 928.89 489.174Z" fill="#588937" fill-rule="evenodd"/><path d="M160.457 489.174 263.89 489.174 263.89 530.774 160.457 530.774Z" fill="#70AD47" fill-rule="evenodd"/><path d="M263.89 489.174 391.89 489.174 391.89 530.774 263.89 530.774Z" fill="#70AD47" fill-rule="evenodd"/><path d="M391.89 489.174 542.89 489.174 542.89 530.774 391.89 530.774Z" fill="#70AD47" fill-rule="evenodd"/><path d="M542.89 489.174 750.89 489.174 750.89 530.774 542.89 530.774Z" fill="#70AD47" fill-rule="evenodd"/><path d="M750.89 489.174 928.89 489.174 928.89 530.774 750.89 530.774Z" fill="#70AD47" fill-rule="evenodd"/><path d="M928.89 489.174 1157.89 489.174 1157.89 530.774 928.89 530.774Z" fill="#70AD47" fill-rule="evenodd"/><path d="M160.457 530.774 263.89 530.774 263.89 578.468 160.457 578.468Z" fill="#588937" fill-rule="evenodd"/><path d="M263.89 530.774 391.89 530.774 391.89 578.468 263.89 578.468Z" fill="#588937" fill-rule="evenodd"/><path d="M391.89 530.774 542.89 530.774 542.89 578.468 391.89 578.468Z" fill="#588937" fill-rule="evenodd"/><path d="M542.89 530.774 750.89 530.774 750.89 578.468 542.89 578.468Z" fill="#588937" fill-rule="evenodd"/><path d="M750.89 530.774 928.89 530.774 928.89 578.468 750.89 578.468Z" fill="#588937" fill-rule="evenodd"/><path d="M928.89 530.774 1157.89 530.774 1157.89 578.468 928.89 578.468Z" fill="#588937" fill-rule="evenodd"/><path d="M160.457 578.468 263.89 578.468 263.89 626.162 160.457 626.162Z" fill="#70AD47" fill-rule="evenodd"/><path d="M263.89 578.468 391.89 578.468 391.89 626.162 263.89 626.162Z" fill="#70AD47" fill-rule="evenodd"/><path d="M391.89 578.468 542.89 578.468 542.89 626.162 391.89 626.162Z" fill="#70AD47" fill-rule="evenodd"/><path d="M542.89 578.468 750.89 578.468 750.89 626.162 542.89 626.162Z" fill="#70AD47" fill-rule="evenodd"/><path d="M750.89 578.468 928.89 578.468 928.89 626.162 750.89 626.162Z" fill="#70AD47" fill-rule="evenodd"/><path d="M928.89 578.468 1157.89 578.468 1157.89 626.162 928.89 626.162Z" fill="#70AD47" fill-rule="evenodd"/><path d="M160.457 626.162 263.89 626.162 263.89 673.855 160.457 673.855Z" fill="#588937" fill-rule="evenodd"/><path d="M263.89 626.162 391.89 626.162 391.89 673.855 263.89 673.855Z" fill="#588937" fill-rule="evenodd"/><path d="M391.89 626.162 542.89 626.162 542.89 673.855 391.89 673.855Z" fill="#588937" fill-rule="evenodd"/><path d="M542.89 626.162 750.89 626.162 750.89 673.855 542.89 673.855Z" fill="#588937" fill-rule="evenodd"/><path d="M750.89 626.162 928.89 626.162 928.89 673.855 750.89 673.855Z" fill="#588937" fill-rule="evenodd"/><path d="M928.89 626.162 1157.89 626.162 1157.89 673.855 928.89 673.855Z" fill="#588937" fill-rule="evenodd"/><path d="M160.457 425.482 1157.89 425.482" stroke="#FFFFFF" stroke-width="2.66667" stroke-linejoin="round" stroke-miterlimit="10" fill="none" fill-rule="evenodd"/><g clip-path="url(#clip18)"><text fill="#FFFFFF" font-family="Calibri,Calibri_MSFontService,sans-serif" font-weight="700" font-size="27" transform="translate(170.057 414)">Rank</text></g><g clip-path="url(#clip19)"><text fill="#FFFFFF" font-family="Calibri,Calibri_MSFontService,sans-serif" font-weight="700" font-size="27" transform="translate(273.49 414)">Name</text></g><text fill="#FFFFFF" font-family="Calibri,Calibri_MSFontService,sans-serif" font-weight="700" font-size="27" transform="translate(417.737 414)">Key code<tspan font-size="27" x="162.853" y="0">Total supply</tspan></text><g clip-path="url(#clip20)"><text fill="#FFFFFF" font-family="Calibri,Calibri_MSFontService,sans-serif" font-weight="700" font-size="27" transform="translate(760.49 414)">Release date</text></g><g clip-path="url(#clip21)"><text fill="#FFFFFF" font-family="Calibri,Calibri_MSFontService,sans-serif" font-weight="700" font-size="27" transform="translate(938.49 414)">Creator</text></g><g clip-path="url(#clip22)"><text fill="#FFFFFF" font-family="Calibri,Calibri_MSFontService,sans-serif" font-weight="400" font-size="27" transform="translate(170.057 455)">1</text></g><g clip-path="url(#clip23)"><text fill="#FFFFFF" font-family="Calibri,Calibri_MSFontService,sans-serif" font-weight="400" font-size="27" transform="translate(273.49 455)">Bitcoin</text></g><text fill="#FFFFFF" font-family="Calibri,Calibri_MSFontService,sans-serif" font-weight="400" font-size="27" transform="translate(447.144 455)">BTC<tspan font-size="27" x="139.08" y="0">21,000,000</tspan></text><g clip-path="url(#clip24)"><text fill="#FFFFFF" font-family="Calibri,Calibri_MSFontService,sans-serif" font-weight="400" font-size="27" transform="translate(760.49 455)">2009</text></g><text fill="#FFFFFF" font-family="Calibri,Calibri_MSFontService,sans-serif" font-weight="400" font-size="27" transform="translate(814.49 455)">-<tspan font-size="27" x="8.16669" y="0">01</tspan>-<tspan font-size="27" x="43.3334" y="0">03</tspan></text><g clip-path="url(#clip25)"><text fill="#FFFFFF" font-family="Calibri,Calibri_MSFontService,sans-serif" font-weight="400" font-size="27" transform="translate(938.49 455)">Satoshi Nakamoto</text></g><g clip-path="url(#clip26)"><text fill="#FFFFFF" font-family="Calibri,Calibri_MSFontService,sans-serif" font-weight="400" font-size="27" transform="translate(170.057 519)">2</text></g><g clip-path="url(#clip27)"><text fill="#FFFFFF" font-family="Calibri,Calibri_MSFontService,sans-serif" font-weight="400" font-size="27" transform="translate(273.49 519)">Ethereum</text></g><text fill="#FFFFFF" font-family="Calibri,Calibri_MSFontService,sans-serif" font-weight="400" font-size="27" transform="translate(446.057 519)">ETH<tspan font-size="27" x="189.5" y="0">∞</tspan></text><g clip-path="url(#clip28)"><text fill="#FFFFFF" font-family="Calibri,Calibri_MSFontService,sans-serif" font-weight="400" font-size="27" transform="translate(760.49 519)">2015</text></g><text fill="#FFFFFF" font-family="Calibri,Calibri_MSFontService,sans-serif" font-weight="400" font-size="27" transform="translate(814.49 519)">-<tspan font-size="27" x="8.16669" y="0">07</tspan>-<tspan font-size="27" x="43.3334" y="0">30</tspan></text><g clip-path="url(#clip29)"><text fill="#FFFFFF" font-family="Calibri,Calibri_MSFontService,sans-serif" font-weight="400" font-size="27" transform="translate(938.49 519)">Vitalik</text></g><text fill="#FFFFFF" font-family="Calibri,Calibri_MSFontService,sans-serif" font-weight="400" font-size="27" transform="translate(1011.83 519)">Buterin</text><g clip-path="url(#clip30)"><text fill="#FFFFFF" font-family="Calibri,Calibri_MSFontService,sans-serif" font-weight="400" font-size="27" transform="translate(170.057 561)">3</text></g><g clip-path="url(#clip31)"><text fill="#FFFFFF" font-family="Calibri,Calibri_MSFontService,sans-serif" font-weight="400" font-size="27" transform="translate(273.49 561)">Tether</text></g><text fill="#FFFFFF" font-family="Calibri,Calibri_MSFontService,sans-serif" font-weight="400" font-size="27" transform="translate(438.123 561)">USDT<tspan font-size="27" x="197.433" y="0">∞</tspan></text><g clip-path="url(#clip32)"><text fill="#FFFFFF" font-family="Calibri,Calibri_MSFontService,sans-serif" font-weight="400" font-size="27" transform="translate(760.49 561)">2014</text></g><text fill="#FFFFFF" font-family="Calibri,Calibri_MSFontService,sans-serif" font-weight="400" font-size="27" transform="translate(814.49 561)">-<tspan font-size="27" x="8.16669" y="0">07</tspan>-<tspan font-size="27" x="43.3334" y="0">20</tspan></text><g clip-path="url(#clip33)"><text fill="#FFFFFF" font-family="Calibri,Calibri_MSFontService,sans-serif" font-weight="400" font-size="27" transform="translate(938.49 561)">Brock Pierce</text></g><g clip-path="url(#clip34)"><text fill="#FFFFFF" font-family="Calibri,Calibri_MSFontService,sans-serif" font-weight="400" font-size="27" transform="translate(170.057 608)">3</text></g><g clip-path="url(#clip35)"><text fill="#FFFFFF" font-family="Calibri,Calibri_MSFontService,sans-serif" font-weight="400" font-size="27" transform="translate(273.49 608)">Tether</text></g><text fill="#FFFFFF" font-family="Calibri,Calibri_MSFontService,sans-serif" font-weight="400" font-size="27" transform="translate(438.123 608)">USDT<tspan font-size="27" x="197.433" y="0">∞</tspan></text><g clip-path="url(#clip36)"><text fill="#FFFFFF" font-family="Calibri,Calibri_MSFontService,sans-serif" font-weight="400" font-size="27" transform="translate(760.49 608)">2014</text></g><text fill="#FFFFFF" font-family="Calibri,Calibri_MSFontService,sans-serif" font-weight="400" font-size="27" transform="translate(814.49 608)">-<tspan font-size="27" x="8.16669" y="0">07</tspan>-<tspan font-size="27" x="43.3334" y="0">20</tspan></text><g clip-path="url(#clip37)"><text fill="#FFFFFF" font-family="Calibri,Calibri_MSFontService,sans-serif" font-weight="400" font-size="27" transform="translate(938.49 608)">Craig Sellars</text></g><g clip-path="url(#clip38)"><text fill="#FFFFFF" font-family="Calibri,Calibri_MSFontService,sans-serif" font-weight="400" font-size="27" transform="translate(170.057 656)">3</text></g><g clip-path="url(#clip39)"><text fill="#FFFFFF" font-family="Calibri,Calibri_MSFontService,sans-serif" font-weight="400" font-size="27" transform="translate(273.49 656)">Tether</text></g><text fill="#FFFFFF" font-family="Calibri,Calibri_MSFontService,sans-serif" font-weight="400" font-size="27" transform="translate(438.123 656)">USDT<tspan font-size="27" x="197.433" y="0">∞</tspan></text><g clip-path="url(#clip40)"><text fill="#FFFFFF" font-family="Calibri,Calibri_MSFontService,sans-serif" font-weight="400" font-size="27" transform="translate(760.49 656)">2014</text></g><text fill="#FFFFFF" font-family="Calibri,Calibri_MSFontService,sans-serif" font-weight="400" font-size="27" transform="translate(814.49 656)">-<tspan font-size="27" x="8.16669" y="0">07</tspan>-<tspan font-size="27" x="43.3334" y="0">20</tspan></text><g clip-path="url(#clip41)"><text fill="#FFFFFF" font-family="Calibri,Calibri_MSFontService,sans-serif" font-weight="400" font-size="27" transform="translate(938.49 656)">Reeve Collins</text></g><text font-family="Calibri,Calibri_MSFontService,sans-serif" font-weight="400" font-size="33" transform="translate(554.837 69)">Before 1NF<tspan font-size="33" x="0" y="265">After 1NF</tspan></text></g></svg>