<svg width="1280" height="720" xmlns="http://www.w3.org/2000/svg" xmlns:xlink="http://www.w3.org/1999/xlink" overflow="hidden"><defs><clipPath id="clip0"><rect x="0" y="0" width="1280" height="720"/></clipPath><clipPath id="clip1"><rect x="153" y="123" width="105" height="225"/></clipPath><clipPath id="clip2"><rect x="257" y="123" width="132" height="225"/></clipPath><clipPath id="clip3"><rect x="747" y="123" width="179" height="225"/></clipPath><clipPath id="clip4"><rect x="925" y="123" width="230" height="225"/></clipPath><clipPath id="clip5"><rect x="153" y="165" width="105" height="225"/></clipPath><clipPath id="clip6"><rect x="257" y="165" width="132" height="225"/></clipPath><clipPath id="clip7"><rect x="747" y="165" width="179" height="225"/></clipPath><clipPath id="clip8"><rect x="925" y="165" width="230" height="225"/></clipPath><clipPath id="clip9"><rect x="153" y="229" width="105" height="225"/></clipPath><clipPath id="clip10"><rect x="257" y="229" width="132" height="225"/></clipPath><clipPath id="clip11"><rect x="747" y="229" width="179" height="225"/></clipPath><clipPath id="clip12"><rect x="925" y="229" width="230" height="225"/></clipPath><clipPath id="clip13"><rect x="153" y="270" width="105" height="225"/></clipPath><clipPath id="clip14"><rect x="257" y="270" width="132" height="225"/></clipPath><clipPath id="clip15"><rect x="747" y="270" width="179" height="225"/></clipPath><clipPath id="clip16"><rect x="925" y="270" width="230" height="225"/></clipPath><clipPath id="clip17"><rect x="153" y="318" width="105" height="225"/></clipPath><clipPath id="clip18"><rect x="257" y="318" width="132" height="225"/></clipPath><clipPath id="clip19"><rect x="747" y="318" width="179" height="225"/></clipPath><clipPath id="clip20"><rect x="925" y="318" width="230" height="225"/></clipPath><clipPath id="clip21"><rect x="153" y="366" width="105" height="225"/></clipPath><clipPath id="clip22"><rect x="257" y="366" width="132" height="225"/></clipPath><clipPath id="clip23"><rect x="747" y="366" width="179" height="225"/></clipPath><clipPath id="clip24"><rect x="925" y="366" width="230" height="225"/></clipPath></defs><g clip-path="url(#clip0)"><rect x="0" y="0" width="1280" height="720" fill="#FFFFFF"/><path d="M153.567 215.013 257 215.013 257 256.613 153.567 256.613Z" fill-rule="evenodd"/><path d="M257 215.013 388.867 215.013 388.867 256.613 257 256.613Z" fill-rule="evenodd"/><path d="M388.867 215.013 539.867 215.013 539.867 256.613 388.867 256.613Z" fill-rule="evenodd"/><path d="M539.867 215.013 747.867 215.013 747.867 256.613 539.867 256.613Z" fill-rule="evenodd"/><path d="M747.867 215.013 925.867 215.013 925.867 256.613 747.867 256.613Z" fill-rule="evenodd"/><path d="M925.867 215.013 1154.87 215.013 1154.87 256.613 925.867 256.613Z" fill-rule="evenodd"/><path d="M153.567 256.613 257 256.613 257 320.306 153.567 320.306Z" fill="#BD6225" fill-rule="evenodd"/><path d="M257 256.613 388.867 256.613 388.867 320.306 257 320.306Z" fill="#BD6225" fill-rule="evenodd"/><path d="M388.867 256.613 539.867 256.613 539.867 320.306 388.867 320.306Z" fill="#BD6225" fill-rule="evenodd"/><path d="M539.867 256.613 747.867 256.613 747.867 320.306 539.867 320.306Z" fill="#BD6225" fill-rule="evenodd"/><path d="M747.867 256.613 925.867 256.613 925.867 320.306 747.867 320.306Z" fill="#BD6225" fill-rule="evenodd"/><path d="M925.867 256.613 1154.87 256.613 1154.87 320.306 925.867 320.306Z" fill="#BD6225" fill-rule="evenodd"/><path d="M153.567 320.306 257 320.306 257 361.906 153.567 361.906Z" fill="#ED7D31" fill-rule="evenodd"/><path d="M257 320.306 388.867 320.306 388.867 361.906 257 361.906Z" fill="#ED7D31" fill-rule="evenodd"/><path d="M388.867 320.306 539.867 320.306 539.867 361.906 388.867 361.906Z" fill="#ED7D31" fill-rule="evenodd"/><path d="M539.867 320.306 747.867 320.306 747.867 361.906 539.867 361.906Z" fill="#ED7D31" fill-rule="evenodd"/><path d="M747.867 320.306 925.867 320.306 925.867 361.906 747.867 361.906Z" fill="#ED7D31" fill-rule="evenodd"/><path d="M925.867 320.306 1154.87 320.306 1154.87 361.906 925.867 361.906Z" fill="#ED7D31" fill-rule="evenodd"/><path d="M153.567 361.906 257 361.906 257 409.599 153.567 409.599Z" fill="#BD6225" fill-rule="evenodd"/><path d="M257 361.906 388.867 361.906 388.867 409.599 257 409.599Z" fill="#BD6225" fill-rule="evenodd"/><path d="M388.867 361.906 539.867 361.906 539.867 409.599 388.867 409.599Z" fill="#BD6225" fill-rule="evenodd"/><path d="M539.867 361.906 747.867 361.906 747.867 409.599 539.867 409.599Z" fill="#BD6225" fill-rule="evenodd"/><path d="M747.867 361.906 925.867 361.906 925.867 409.599 747.867 409.599Z" fill="#BD6225" fill-rule="evenodd"/><path d="M925.867 361.906 1154.87 361.906 1154.87 409.599 925.867 409.599Z" fill="#BD6225" fill-rule="evenodd"/><path d="M153.567 409.599 257 409.599 257 457.293 153.567 457.293Z" fill="#ED7D31" fill-rule="evenodd"/><path d="M257 409.599 388.867 409.599 388.867 457.293 257 457.293Z" fill="#ED7D31" fill-rule="evenodd"/><path d="M388.867 409.599 539.867 409.599 539.867 457.293 388.867 457.293Z" fill="#ED7D31" fill-rule="evenodd"/><path d="M539.867 409.599 747.867 409.599 747.867 457.293 539.867 457.293Z" fill="#ED7D31" fill-rule="evenodd"/><path d="M747.867 409.599 925.867 409.599 925.867 457.293 747.867 457.293Z" fill="#ED7D31" fill-rule="evenodd"/><path d="M925.867 409.599 1154.87 409.599 1154.87 457.293 925.867 457.293Z" fill="#ED7D31" fill-rule="evenodd"/><path d="M153.567 457.293 257 457.293 257 504.986 153.567 504.986Z" fill="#BD6225" fill-rule="evenodd"/><path d="M257 457.293 388.867 457.293 388.867 504.986 257 504.986Z" fill="#BD6225" fill-rule="evenodd"/><path d="M388.867 457.293 539.867 457.293 539.867 504.986 388.867 504.986Z" fill="#BD6225" fill-rule="evenodd"/><path d="M539.867 457.293 747.867 457.293 747.867 504.986 539.867 504.986Z" fill="#BD6225" fill-rule="evenodd"/><path d="M747.867 457.293 925.867 457.293 925.867 504.986 747.867 504.986Z" fill="#BD6225" fill-rule="evenodd"/><path d="M925.867 457.293 1154.87 457.293 1154.87 504.986 925.867 504.986Z" fill="#BD6225" fill-rule="evenodd"/><path d="M153.567 256.613 1154.87 256.613" stroke="#FFFFFF" stroke-width="2.66667" stroke-linejoin="round" stroke-miterlimit="10" fill="none" fill-rule="evenodd"/><g clip-path="url(#clip1)"><text fill="#FFFFFF" font-family="Calibri,Calibri_MSFontService,sans-serif" font-weight="700" font-size="27" transform="translate(163.167 245)">Rank</text></g><g clip-path="url(#clip2)"><text fill="#FFFFFF" font-family="Calibri,Calibri_MSFontService,sans-serif" font-weight="700" font-size="27" transform="translate(266.6 245)">Name</text></g><text fill="#FFFFFF" font-family="Calibri,Calibri_MSFontService,sans-serif" font-weight="700" font-size="27" transform="translate(414.713 245)">Key code<tspan font-size="27" x="162.853" y="0">Total supply</tspan></text><g clip-path="url(#clip3)"><text fill="#FFFFFF" font-family="Calibri,Calibri_MSFontService,sans-serif" font-weight="700" font-size="27" transform="translate(757.467 245)">Release date</text></g><g clip-path="url(#clip4)"><text fill="#FFFFFF" font-family="Calibri,Calibri_MSFontService,sans-serif" font-weight="700" font-size="27" transform="translate(935.467 245)">Creator</text></g><g clip-path="url(#clip5)"><text fill="#FFFFFF" font-family="Calibri,Calibri_MSFontService,sans-serif" font-weight="400" font-size="27" transform="translate(163.167 286)">1</text></g><g clip-path="url(#clip6)"><text fill="#FFFFFF" font-family="Calibri,Calibri_MSFontService,sans-serif" font-weight="400" font-size="27" transform="translate(266.6 286)">Bitcoin</text></g><text fill="#FFFFFF" font-family="Calibri,Calibri_MSFontService,sans-serif" font-weight="400" font-size="27" transform="translate(444.12 286)">BTC<tspan font-size="27" x="139.08" y="0">21,000,000</tspan></text><g clip-path="url(#clip7)"><text fill="#FFFFFF" font-family="Calibri,Calibri_MSFontService,sans-serif" font-weight="400" font-size="27" transform="translate(757.467 286)">2009</text></g><text fill="#FFFFFF" font-family="Calibri,Calibri_MSFontService,sans-serif" font-weight="400" font-size="27" transform="translate(811.467 286)">-<tspan font-size="27" x="8.16669" y="0">01</tspan>-<tspan font-size="27" x="43.3333" y="0">03</tspan></text><g clip-path="url(#clip8)"><text fill="#FFFFFF" font-family="Calibri,Calibri_MSFontService,sans-serif" font-weight="400" font-size="27" transform="translate(935.467 286)">Satoshi Nakamoto</text></g><g clip-path="url(#clip9)"><text fill="#FFFFFF" font-family="Calibri,Calibri_MSFontService,sans-serif" font-weight="400" font-size="27" transform="translate(163.167 350)">2</text></g><g clip-path="url(#clip10)"><text fill="#FFFFFF" font-family="Calibri,Calibri_MSFontService,sans-serif" font-weight="400" font-size="27" transform="translate(266.6 350)">Ethereum</text></g><text fill="#FFFFFF" font-family="Calibri,Calibri_MSFontService,sans-serif" font-weight="400" font-size="27" transform="translate(443.033 350)">ETH<tspan font-size="27" x="189.5" y="0">∞</tspan></text><g clip-path="url(#clip11)"><text fill="#FFFFFF" font-family="Calibri,Calibri_MSFontService,sans-serif" font-weight="400" font-size="27" transform="translate(757.467 350)">2015</text></g><text fill="#FFFFFF" font-family="Calibri,Calibri_MSFontService,sans-serif" font-weight="400" font-size="27" transform="translate(811.467 350)">-<tspan font-size="27" x="8.16669" y="0">07</tspan>-<tspan font-size="27" x="43.3333" y="0">30</tspan></text><g clip-path="url(#clip12)"><text fill="#FFFFFF" font-family="Calibri,Calibri_MSFontService,sans-serif" font-weight="400" font-size="27" transform="translate(935.467 350)">Vitalik</text></g><text fill="#FFFFFF" font-family="Calibri,Calibri_MSFontService,sans-serif" font-weight="400" font-size="27" transform="translate(1008.81 350)">Buterin</text><g clip-path="url(#clip13)"><text fill="#FFFFFF" font-family="Calibri,Calibri_MSFontService,sans-serif" font-weight="400" font-size="27" transform="translate(163.167 392)">3</text></g><g clip-path="url(#clip14)"><text fill="#FFFFFF" font-family="Calibri,Calibri_MSFontService,sans-serif" font-weight="400" font-size="27" transform="translate(266.6 392)">Tether</text></g><text fill="#FFFFFF" font-family="Calibri,Calibri_MSFontService,sans-serif" font-weight="400" font-size="27" transform="translate(435.1 392)">USDT<tspan font-size="27" x="197.433" y="0">∞</tspan></text><g clip-path="url(#clip15)"><text fill="#FFFFFF" font-family="Calibri,Calibri_MSFontService,sans-serif" font-weight="400" font-size="27" transform="translate(757.467 392)">2014</text></g><text fill="#FFFFFF" font-family="Calibri,Calibri_MSFontService,sans-serif" font-weight="400" font-size="27" transform="translate(811.467 392)">-<tspan font-size="27" x="8.16669" y="0">07</tspan>-<tspan font-size="27" x="43.3333" y="0">20</tspan></text><g clip-path="url(#clip16)"><text fill="#FFFFFF" font-family="Calibri,Calibri_MSFontService,sans-serif" font-weight="400" font-size="27" transform="translate(935.467 392)">Brock Pierce</text></g><g clip-path="url(#clip17)"><text fill="#FFFFFF" font-family="Calibri,Calibri_MSFontService,sans-serif" font-weight="400" font-size="27" transform="translate(163.167 439)">3</text></g><g clip-path="url(#clip18)"><text fill="#FFFFFF" font-family="Calibri,Calibri_MSFontService,sans-serif" font-weight="400" font-size="27" transform="translate(266.6 439)">Tether</text></g><text fill="#FFFFFF" font-family="Calibri,Calibri_MSFontService,sans-serif" font-weight="400" font-size="27" transform="translate(435.1 439)">USDT<tspan font-size="27" x="197.433" y="0">∞</tspan></text><g clip-path="url(#clip19)"><text fill="#FFFFFF" font-family="Calibri,Calibri_MSFontService,sans-serif" font-weight="400" font-size="27" transform="translate(757.467 439)">2014</text></g><text fill="#FFFFFF" font-family="Calibri,Calibri_MSFontService,sans-serif" font-weight="400" font-size="27" transform="translate(811.467 439)">-<tspan font-size="27" x="8.16669" y="0">07</tspan>-<tspan font-size="27" x="43.3333" y="0">20</tspan></text><g clip-path="url(#clip20)"><text fill="#FFFFFF" font-family="Calibri,Calibri_MSFontService,sans-serif" font-weight="400" font-size="27" transform="translate(935.467 439)">Craig Sellars</text></g><g clip-path="url(#clip21)"><text fill="#FFFFFF" font-family="Calibri,Calibri_MSFontService,sans-serif" font-weight="400" font-size="27" transform="translate(163.167 487)">3</text></g><g clip-path="url(#clip22)"><text fill="#FFFFFF" font-family="Calibri,Calibri_MSFontService,sans-serif" font-weight="400" font-size="27" transform="translate(266.6 487)">Tether</text></g><text fill="#FFFFFF" font-family="Calibri,Calibri_MSFontService,sans-serif" font-weight="400" font-size="27" transform="translate(435.1 487)">USDT<tspan font-size="27" x="197.433" y="0">∞</tspan></text><g clip-path="url(#clip23)"><text fill="#FFFFFF" font-family="Calibri,Calibri_MSFontService,sans-serif" font-weight="400" font-size="27" transform="translate(757.467 487)">2014</text></g><text fill="#FFFFFF" font-family="Calibri,Calibri_MSFontService,sans-serif" font-weight="400" font-size="27" transform="translate(811.467 487)">-<tspan font-size="27" x="8.16669" y="0">07</tspan>-<tspan font-size="27" x="43.3333" y="0">20</tspan></text><g clip-path="url(#clip24)"><text fill="#FFFFFF" font-family="Calibri,Calibri_MSFontService,sans-serif" font-weight="400" font-size="27" transform="translate(935.467 487)">Reeve Collins</text></g><text font-family="Calibri,Calibri_MSFontService,sans-serif" font-weight="400" font-size="33" transform="translate(551.296 134)">Before 2NF</text></g></svg>