<svg width="1280" height="720" xmlns="http://www.w3.org/2000/svg" xmlns:xlink="http://www.w3.org/1999/xlink" overflow="hidden"><defs><clipPath id="clip0"><rect x="0" y="0" width="1280" height="720"/></clipPath><clipPath id="clip1"><rect x="448" y="27" width="105" height="225"/></clipPath><clipPath id="clip2"><rect x="552" y="27" width="129" height="225"/></clipPath><clipPath id="clip3"><rect x="448" y="69" width="105" height="225"/></clipPath><clipPath id="clip4"><rect x="552" y="69" width="129" height="225"/></clipPath><clipPath id="clip5"><rect x="448" y="133" width="105" height="225"/></clipPath><clipPath id="clip6"><rect x="552" y="133" width="129" height="225"/></clipPath><clipPath id="clip7"><rect x="448" y="174" width="105" height="225"/></clipPath><clipPath id="clip8"><rect x="552" y="174" width="129" height="225"/></clipPath><clipPath id="clip9"><rect x="643" y="270" width="179" height="225"/></clipPath><clipPath id="clip10"><rect x="821" y="270" width="230" height="225"/></clipPath><clipPath id="clip11"><rect x="643" y="312" width="179" height="225"/></clipPath><clipPath id="clip12"><rect x="821" y="312" width="230" height="225"/></clipPath><clipPath id="clip13"><rect x="643" y="376" width="179" height="225"/></clipPath><clipPath id="clip14"><rect x="821" y="376" width="230" height="225"/></clipPath><clipPath id="clip15"><rect x="643" y="417" width="179" height="225"/></clipPath><clipPath id="clip16"><rect x="821" y="417" width="230" height="225"/></clipPath><clipPath id="clip17"><rect x="643" y="465" width="179" height="225"/></clipPath><clipPath id="clip18"><rect x="821" y="465" width="230" height="225"/></clipPath><clipPath id="clip19"><rect x="643" y="513" width="179" height="225"/></clipPath><clipPath id="clip20"><rect x="821" y="513" width="230" height="225"/></clipPath></defs><g clip-path="url(#clip0)"><rect x="0" y="0" width="1280" height="720" fill="#FFFFFF"/><path d="M448.784 119.013 552.216 119.013 552.216 160.613 448.784 160.613Z" fill-rule="evenodd"/><path d="M552.216 119.013 680.216 119.013 680.216 160.613 552.216 160.613Z" fill-rule="evenodd"/><path d="M680.216 119.013 831.216 119.013 831.216 160.613 680.216 160.613Z" fill-rule="evenodd"/><path d="M448.784 160.613 552.216 160.613 552.216 224.306 448.784 224.306Z" fill="#CB9900" fill-rule="evenodd"/><path d="M552.216 160.613 680.216 160.613 680.216 224.306 552.216 224.306Z" fill="#CB9900" fill-rule="evenodd"/><path d="M680.216 160.613 831.216 160.613 831.216 224.306 680.216 224.306Z" fill="#CB9900" fill-rule="evenodd"/><path d="M448.784 224.306 552.216 224.306 552.216 265.906 448.784 265.906Z" fill="#FFC000" fill-rule="evenodd"/><path d="M552.216 224.306 680.216 224.306 680.216 265.906 552.216 265.906Z" fill="#FFC000" fill-rule="evenodd"/><path d="M680.216 224.306 831.216 224.306 831.216 265.906 680.216 265.906Z" fill="#FFC000" fill-rule="evenodd"/><path d="M448.784 265.906 552.216 265.906 552.216 313.599 448.784 313.599Z" fill="#CB9900" fill-rule="evenodd"/><path d="M552.216 265.906 680.216 265.906 680.216 313.599 552.216 313.599Z" fill="#CB9900" fill-rule="evenodd"/><path d="M680.216 265.906 831.216 265.906 831.216 313.599 680.216 313.599Z" fill="#CB9900" fill-rule="evenodd"/><path d="M448.784 160.613 831.216 160.613" stroke="#FFFFFF" stroke-width="2.66667" stroke-linejoin="round" stroke-miterlimit="10" fill="none" fill-rule="evenodd"/><g clip-path="url(#clip1)"><text fill="#FFFFFF" font-family="Calibri,Calibri_MSFontService,sans-serif" font-weight="700" font-size="27" transform="translate(458.384 149)">Rank</text></g><g clip-path="url(#clip2)"><text fill="#FFFFFF" font-family="Calibri,Calibri_MSFontService,sans-serif" font-weight="700" font-size="27" transform="translate(561.816 149)">Name</text></g><text fill="#FFFFFF" font-family="Calibri,Calibri_MSFontService,sans-serif" font-weight="700" font-size="27" transform="translate(706.063 149)">Key code</text><g clip-path="url(#clip3)"><text fill="#FFFFFF" font-family="Calibri,Calibri_MSFontService,sans-serif" font-weight="400" font-size="27" transform="translate(458.384 190)">1</text></g><g clip-path="url(#clip4)"><text fill="#FFFFFF" font-family="Calibri,Calibri_MSFontService,sans-serif" font-weight="400" font-size="27" transform="translate(561.816 190)">Bitcoin</text></g><text fill="#FFFFFF" font-family="Calibri,Calibri_MSFontService,sans-serif" font-weight="400" font-size="27" transform="translate(735.47 190)">BTC</text><g clip-path="url(#clip5)"><text fill="#FFFFFF" font-family="Calibri,Calibri_MSFontService,sans-serif" font-weight="400" font-size="27" transform="translate(458.384 254)">2</text></g><g clip-path="url(#clip6)"><text fill="#FFFFFF" font-family="Calibri,Calibri_MSFontService,sans-serif" font-weight="400" font-size="27" transform="translate(561.816 254)">Ethereum</text></g><text fill="#FFFFFF" font-family="Calibri,Calibri_MSFontService,sans-serif" font-weight="400" font-size="27" transform="translate(734.383 254)">ETH</text><g clip-path="url(#clip7)"><text fill="#FFFFFF" font-family="Calibri,Calibri_MSFontService,sans-serif" font-weight="400" font-size="27" transform="translate(458.384 296)">3</text></g><g clip-path="url(#clip8)"><text fill="#FFFFFF" font-family="Calibri,Calibri_MSFontService,sans-serif" font-weight="400" font-size="27" transform="translate(561.816 296)">Tether</text></g><text fill="#FFFFFF" font-family="Calibri,Calibri_MSFontService,sans-serif" font-weight="400" font-size="27" transform="translate(726.45 296)">USDT<tspan fill="#000000" font-size="33" x="-152.293" y="-217">After</tspan><tspan fill="#000000" font-size="33" x="-76.1531" y="-217">2</tspan><tspan fill="#000000" font-size="33" x="-59.3198" y="-217">NF</tspan></text><path d="M284.348 362.144 435.348 362.144 435.348 403.744 284.348 403.744Z" fill-rule="evenodd"/><path d="M435.348 362.144 643.348 362.144 643.348 403.744 435.348 403.744Z" fill-rule="evenodd"/><path d="M643.348 362.144 821.348 362.144 821.348 403.744 643.348 403.744Z" fill-rule="evenodd"/><path d="M821.348 362.144 1050.35 362.144 1050.35 403.744 821.348 403.744Z" fill-rule="evenodd"/><path d="M284.348 403.744 435.348 403.744 435.348 467.436 284.348 467.436Z" fill="#34599C" fill-rule="evenodd"/><path d="M435.348 403.744 643.348 403.744 643.348 467.436 435.348 467.436Z" fill="#34599C" fill-rule="evenodd"/><path d="M643.348 403.744 821.348 403.744 821.348 467.436 643.348 467.436Z" fill="#34599C" fill-rule="evenodd"/><path d="M821.348 403.744 1050.35 403.744 1050.35 467.436 821.348 467.436Z" fill="#34599C" fill-rule="evenodd"/><path d="M284.348 467.436 435.348 467.436 435.348 509.036 284.348 509.036Z" fill="#4472C4" fill-rule="evenodd"/><path d="M435.348 467.436 643.348 467.436 643.348 509.036 435.348 509.036Z" fill="#4472C4" fill-rule="evenodd"/><path d="M643.348 467.436 821.348 467.436 821.348 509.036 643.348 509.036Z" fill="#4472C4" fill-rule="evenodd"/><path d="M821.348 467.436 1050.35 467.436 1050.35 509.036 821.348 509.036Z" fill="#4472C4" fill-rule="evenodd"/><path d="M284.348 509.036 435.348 509.036 435.348 556.73 284.348 556.73Z" fill="#34599C" fill-rule="evenodd"/><path d="M435.348 509.036 643.348 509.036 643.348 556.73 435.348 556.73Z" fill="#34599C" fill-rule="evenodd"/><path d="M643.348 509.036 821.348 509.036 821.348 556.73 643.348 556.73Z" fill="#34599C" fill-rule="evenodd"/><path d="M821.348 509.036 1050.35 509.036 1050.35 556.73 821.348 556.73Z" fill="#34599C" fill-rule="evenodd"/><path d="M284.348 556.73 435.348 556.73 435.348 604.423 284.348 604.423Z" fill="#4472C4" fill-rule="evenodd"/><path d="M435.348 556.73 643.348 556.73 643.348 604.423 435.348 604.423Z" fill="#4472C4" fill-rule="evenodd"/><path d="M643.348 556.73 821.348 556.73 821.348 604.423 643.348 604.423Z" fill="#4472C4" fill-rule="evenodd"/><path d="M821.348 556.73 1050.35 556.73 1050.35 604.423 821.348 604.423Z" fill="#4472C4" fill-rule="evenodd"/><path d="M284.348 604.423 435.348 604.423 435.348 652.117 284.348 652.117Z" fill="#34599C" fill-rule="evenodd"/><path d="M435.348 604.423 643.348 604.423 643.348 652.117 435.348 652.117Z" fill="#34599C" fill-rule="evenodd"/><path d="M643.348 604.423 821.348 604.423 821.348 652.117 643.348 652.117Z" fill="#34599C" fill-rule="evenodd"/><path d="M821.348 604.423 1050.35 604.423 1050.35 652.117 821.348 652.117Z" fill="#34599C" fill-rule="evenodd"/><path d="M284.348 403.744 1050.35 403.744" stroke="#FFFFFF" stroke-width="2.66667" stroke-linejoin="round" stroke-miterlimit="10" fill="none" fill-rule="evenodd"/><text fill="#FFFFFF" font-family="Calibri,Calibri_MSFontService,sans-serif" font-weight="700" font-size="27" transform="translate(310.194 392)">Key code<tspan font-size="27" x="162.853" y="0">Total supply</tspan></text><g clip-path="url(#clip9)"><text fill="#FFFFFF" font-family="Calibri,Calibri_MSFontService,sans-serif" font-weight="700" font-size="27" transform="translate(652.948 392)">Release date</text></g><g clip-path="url(#clip10)"><text fill="#FFFFFF" font-family="Calibri,Calibri_MSFontService,sans-serif" font-weight="700" font-size="27" transform="translate(830.948 392)">Creator</text></g><text fill="#FFFFFF" font-family="Calibri,Calibri_MSFontService,sans-serif" font-weight="400" font-size="27" transform="translate(339.601 434)">BTC<tspan font-size="27" x="139.08" y="0">21,000,000</tspan></text><g clip-path="url(#clip11)"><text fill="#FFFFFF" font-family="Calibri,Calibri_MSFontService,sans-serif" font-weight="400" font-size="27" transform="translate(652.948 434)">2009</text></g><text fill="#FFFFFF" font-family="Calibri,Calibri_MSFontService,sans-serif" font-weight="400" font-size="27" transform="translate(706.948 434)">-<tspan font-size="27" x="8.16669" y="0">01</tspan>-<tspan font-size="27" x="43.3333" y="0">03</tspan></text><g clip-path="url(#clip12)"><text fill="#FFFFFF" font-family="Calibri,Calibri_MSFontService,sans-serif" font-weight="400" font-size="27" transform="translate(830.948 434)">Satoshi Nakamoto</text></g><text fill="#FFFFFF" font-family="Calibri,Calibri_MSFontService,sans-serif" font-weight="400" font-size="27" transform="translate(338.514 497)">ETH<tspan font-size="27" x="189.5" y="0">∞</tspan></text><g clip-path="url(#clip13)"><text fill="#FFFFFF" font-family="Calibri,Calibri_MSFontService,sans-serif" font-weight="400" font-size="27" transform="translate(652.948 497)">2015</text></g><text fill="#FFFFFF" font-family="Calibri,Calibri_MSFontService,sans-serif" font-weight="400" font-size="27" transform="translate(706.948 497)">-<tspan font-size="27" x="8.16669" y="0">07</tspan>-<tspan font-size="27" x="43.3333" y="0">30</tspan></text><g clip-path="url(#clip14)"><text fill="#FFFFFF" font-family="Calibri,Calibri_MSFontService,sans-serif" font-weight="400" font-size="27" transform="translate(830.948 497)">Vitalik</text></g><text fill="#FFFFFF" font-family="Calibri,Calibri_MSFontService,sans-serif" font-weight="400" font-size="27" transform="translate(904.288 497)">Buterin<tspan font-size="27" x="-573.707" y="42">USDT</tspan><tspan font-size="27" x="-376.273" y="42">∞</tspan></text><g clip-path="url(#clip15)"><text fill="#FFFFFF" font-family="Calibri,Calibri_MSFontService,sans-serif" font-weight="400" font-size="27" transform="translate(652.948 539)">2014</text></g><text fill="#FFFFFF" font-family="Calibri,Calibri_MSFontService,sans-serif" font-weight="400" font-size="27" transform="translate(706.948 539)">-<tspan font-size="27" x="8.16669" y="0">07</tspan>-<tspan font-size="27" x="43.3333" y="0">20</tspan></text><g clip-path="url(#clip16)"><text fill="#FFFFFF" font-family="Calibri,Calibri_MSFontService,sans-serif" font-weight="400" font-size="27" transform="translate(830.948 539)">Brock Pierce</text></g><text fill="#FFFFFF" font-family="Calibri,Calibri_MSFontService,sans-serif" font-weight="400" font-size="27" transform="translate(330.581 587)">USDT<tspan font-size="27" x="197.433" y="0">∞</tspan></text><g clip-path="url(#clip17)"><text fill="#FFFFFF" font-family="Calibri,Calibri_MSFontService,sans-serif" font-weight="400" font-size="27" transform="translate(652.948 587)">2014</text></g><text fill="#FFFFFF" font-family="Calibri,Calibri_MSFontService,sans-serif" font-weight="400" font-size="27" transform="translate(706.948 587)">-<tspan font-size="27" x="8.16669" y="0">07</tspan>-<tspan font-size="27" x="43.3333" y="0">20</tspan></text><g clip-path="url(#clip18)"><text fill="#FFFFFF" font-family="Calibri,Calibri_MSFontService,sans-serif" font-weight="400" font-size="27" transform="translate(830.948 587)">Craig Sellars</text></g><text fill="#FFFFFF" font-family="Calibri,Calibri_MSFontService,sans-serif" font-weight="400" font-size="27" transform="translate(330.581 634)">USDT<tspan font-size="27" x="197.433" y="0">∞</tspan></text><g clip-path="url(#clip19)"><text fill="#FFFFFF" font-family="Calibri,Calibri_MSFontService,sans-serif" font-weight="400" font-size="27" transform="translate(652.948 634)">2014</text></g><text fill="#FFFFFF" font-family="Calibri,Calibri_MSFontService,sans-serif" font-weight="400" font-size="27" transform="translate(706.948 634)">-<tspan font-size="27" x="8.16669" y="0">07</tspan>-<tspan font-size="27" x="43.3333" y="0">20</tspan></text><g clip-path="url(#clip20)"><text fill="#FFFFFF" font-family="Calibri,Calibri_MSFontService,sans-serif" font-weight="400" font-size="27" transform="translate(830.948 634)">Reeve Collins</text></g></g></svg>