<svg width="1280" height="720" xmlns="http://www.w3.org/2000/svg" xmlns:xlink="http://www.w3.org/1999/xlink" overflow="hidden"><defs><clipPath id="clip0"><rect x="0" y="0" width="1280" height="720"/></clipPath><clipPath id="clip1"><rect x="117" y="32" width="113" height="225"/></clipPath><clipPath id="clip2"><rect x="229" y="32" width="159" height="225"/></clipPath><clipPath id="clip3"><rect x="759" y="32" width="169" height="225"/></clipPath><clipPath id="clip4"><rect x="927" y="32" width="253" height="225"/></clipPath><clipPath id="clip5"><rect x="117" y="73" width="113" height="225"/></clipPath><clipPath id="clip6"><rect x="229" y="73" width="159" height="225"/></clipPath><clipPath id="clip7"><rect x="759" y="73" width="169" height="225"/></clipPath><clipPath id="clip8"><rect x="927" y="73" width="253" height="225"/></clipPath><clipPath id="clip9"><rect x="117" y="115" width="113" height="225"/></clipPath><clipPath id="clip10"><rect x="229" y="115" width="159" height="225"/></clipPath><clipPath id="clip11"><rect x="759" y="115" width="169" height="225"/></clipPath><clipPath id="clip12"><rect x="927" y="115" width="253" height="225"/></clipPath><clipPath id="clip13"><rect x="117" y="157" width="113" height="225"/></clipPath><clipPath id="clip14"><rect x="229" y="157" width="159" height="225"/></clipPath><clipPath id="clip15"><rect x="759" y="157" width="169" height="225"/></clipPath><clipPath id="clip16"><rect x="927" y="157" width="253" height="225"/></clipPath><clipPath id="clip17"><rect x="117" y="198" width="113" height="225"/></clipPath><clipPath id="clip18"><rect x="229" y="198" width="159" height="225"/></clipPath><clipPath id="clip19"><rect x="759" y="198" width="169" height="225"/></clipPath><clipPath id="clip20"><rect x="927" y="198" width="253" height="225"/></clipPath></defs><g clip-path="url(#clip0)"><rect x="0" y="0" width="1280" height="720" fill="#FFFFFF"/><path d="M117.667 123.555 229.19 123.555 229.19 165.155 117.667 165.155Z" fill-rule="evenodd"/><path d="M229.19 123.555 387.146 123.555 387.146 165.155 229.19 165.155Z" fill-rule="evenodd"/><path d="M387.146 123.555 558.783 123.555 558.783 165.155 387.146 165.155Z" fill-rule="evenodd"/><path d="M558.783 123.555 759.027 123.555 759.027 165.155 558.783 165.155Z" fill-rule="evenodd"/><path d="M759.027 123.555 927.903 123.555 927.903 165.155 759.027 165.155Z" fill-rule="evenodd"/><path d="M927.903 123.555 1179 123.555 1179 165.155 927.903 165.155Z" fill-rule="evenodd"/><path d="M117.667 165.155 229.19 165.155 229.19 206.755 117.667 206.755Z" fill="#34599C" fill-rule="evenodd"/><path d="M229.19 165.155 387.146 165.155 387.146 206.755 229.19 206.755Z" fill="#34599C" fill-rule="evenodd"/><path d="M387.146 165.155 558.783 165.155 558.783 206.755 387.146 206.755Z" fill="#34599C" fill-rule="evenodd"/><path d="M558.783 165.155 759.027 165.155 759.027 206.755 558.783 206.755Z" fill="#34599C" fill-rule="evenodd"/><path d="M759.027 165.155 927.903 165.155 927.903 206.755 759.027 206.755Z" fill="#34599C" fill-rule="evenodd"/><path d="M927.903 165.155 1179 165.155 1179 206.755 927.903 206.755Z" fill="#34599C" fill-rule="evenodd"/><path d="M117.667 206.755 229.19 206.755 229.19 248.355 117.667 248.355Z" fill="#4472C4" fill-rule="evenodd"/><path d="M229.19 206.755 387.146 206.755 387.146 248.355 229.19 248.355Z" fill="#4472C4" fill-rule="evenodd"/><path d="M387.146 206.755 558.783 206.755 558.783 248.355 387.146 248.355Z" fill="#4472C4" fill-rule="evenodd"/><path d="M558.783 206.755 759.027 206.755 759.027 248.355 558.783 248.355Z" fill="#4472C4" fill-rule="evenodd"/><path d="M759.027 206.755 927.903 206.755 927.903 248.355 759.027 248.355Z" fill="#4472C4" fill-rule="evenodd"/><path d="M927.903 206.755 1179 206.755 1179 248.355 927.903 248.355Z" fill="#4472C4" fill-rule="evenodd"/><path d="M117.667 248.355 229.19 248.355 229.19 289.955 117.667 289.955Z" fill="#34599C" fill-rule="evenodd"/><path d="M229.19 248.355 387.146 248.355 387.146 289.955 229.19 289.955Z" fill="#34599C" fill-rule="evenodd"/><path d="M387.146 248.355 558.783 248.355 558.783 289.955 387.146 289.955Z" fill="#34599C" fill-rule="evenodd"/><path d="M558.783 248.355 759.027 248.355 759.027 289.955 558.783 289.955Z" fill="#34599C" fill-rule="evenodd"/><path d="M759.027 248.355 927.903 248.355 927.903 289.955 759.027 289.955Z" fill="#34599C" fill-rule="evenodd"/><path d="M927.903 248.355 1179 248.355 1179 289.955 927.903 289.955Z" fill="#34599C" fill-rule="evenodd"/><path d="M117.667 289.955 229.19 289.955 229.19 331.555 117.667 331.555Z" fill="#4472C4" fill-rule="evenodd"/><path d="M229.19 289.955 387.146 289.955 387.146 331.555 229.19 331.555Z" fill="#4472C4" fill-rule="evenodd"/><path d="M387.146 289.955 558.783 289.955 558.783 331.555 387.146 331.555Z" fill="#4472C4" fill-rule="evenodd"/><path d="M558.783 289.955 759.027 289.955 759.027 331.555 558.783 331.555Z" fill="#4472C4" fill-rule="evenodd"/><path d="M759.027 289.955 927.903 289.955 927.903 331.555 759.027 331.555Z" fill="#4472C4" fill-rule="evenodd"/><path d="M927.903 289.955 1179 289.955 1179 331.555 927.903 331.555Z" fill="#4472C4" fill-rule="evenodd"/><path d="M117.667 165.155 1179 165.155" stroke="#FFFFFF" stroke-width="2.66667" stroke-linejoin="round" stroke-miterlimit="10" fill="none" fill-rule="evenodd"/><g clip-path="url(#clip1)"><text fill="#FFFFFF" font-family="Calibri,Calibri_MSFontService,sans-serif" font-weight="700" font-size="27" transform="translate(127.267 153)">Rank</text></g><g clip-path="url(#clip2)"><text fill="#FFFFFF" font-family="Calibri,Calibri_MSFontService,sans-serif" font-weight="700" font-size="27" transform="translate(238.79 153)">Name</text></g><text fill="#FFFFFF" font-family="Calibri,Calibri_MSFontService,sans-serif" font-weight="700" font-size="27" transform="translate(423.311 153)">Key code<tspan font-size="27" x="169.294" y="0">Total supply</tspan></text><g clip-path="url(#clip3)"><text fill="#FFFFFF" font-family="Calibri,Calibri_MSFontService,sans-serif" font-weight="700" font-size="27" transform="translate(768.627 153)">Release date</text></g><g clip-path="url(#clip4)"><text fill="#FFFFFF" font-family="Calibri,Calibri_MSFontService,sans-serif" font-weight="700" font-size="27" transform="translate(937.503 153)">Creator</text></g><g clip-path="url(#clip5)"><text fill="#FFFFFF" font-family="Calibri,Calibri_MSFontService,sans-serif" font-weight="400" font-size="27" transform="translate(127.267 195)">1</text></g><g clip-path="url(#clip6)"><text fill="#FFFFFF" font-family="Calibri,Calibri_MSFontService,sans-serif" font-weight="400" font-size="27" transform="translate(238.79 195)">Bitcoin</text></g><text fill="#FFFFFF" font-family="Calibri,Calibri_MSFontService,sans-serif" font-weight="400" font-size="27" transform="translate(452.718 195)">BTC<tspan font-size="27" x="145.521" y="0">21,000,000</tspan></text><g clip-path="url(#clip7)"><text fill="#FFFFFF" font-family="Calibri,Calibri_MSFontService,sans-serif" font-weight="400" font-size="27" transform="translate(768.627 195)">2009</text></g><text fill="#FFFFFF" font-family="Calibri,Calibri_MSFontService,sans-serif" font-weight="400" font-size="27" transform="translate(822.627 195)">-<tspan font-size="27" x="8.16669" y="0">01</tspan>-<tspan font-size="27" x="43.3334" y="0">03</tspan></text><g clip-path="url(#clip8)"><text fill="#FFFFFF" font-family="Calibri,Calibri_MSFontService,sans-serif" font-weight="400" font-size="27" transform="translate(937.503 195)">Satoshi Nakamoto</text></g><g clip-path="url(#clip9)"><text fill="#FFFFFF" font-family="Calibri,Calibri_MSFontService,sans-serif" font-weight="400" font-size="27" transform="translate(127.267 237)">2</text></g><g clip-path="url(#clip10)"><text fill="#FFFFFF" font-family="Calibri,Calibri_MSFontService,sans-serif" font-weight="400" font-size="27" transform="translate(238.79 237)">Ethereum</text></g><text fill="#FFFFFF" font-family="Calibri,Calibri_MSFontService,sans-serif" font-weight="400" font-size="27" transform="translate(451.631 237)">ETH<tspan font-size="27" x="195.941" y="0">∞</tspan></text><g clip-path="url(#clip11)"><text fill="#FFFFFF" font-family="Calibri,Calibri_MSFontService,sans-serif" font-weight="400" font-size="27" transform="translate(768.627 237)">2015</text></g><text fill="#FFFFFF" font-family="Calibri,Calibri_MSFontService,sans-serif" font-weight="400" font-size="27" transform="translate(822.627 237)">-<tspan font-size="27" x="8.16669" y="0">07</tspan>-<tspan font-size="27" x="43.3334" y="0">30 </tspan></text><g clip-path="url(#clip12)"><text fill="#FFFFFF" font-family="Calibri,Calibri_MSFontService,sans-serif" font-weight="400" font-size="27" transform="translate(937.503 237)">Vitalik</text></g><text fill="#FFFFFF" font-family="Calibri,Calibri_MSFontService,sans-serif" font-weight="400" font-size="27" transform="translate(1010.84 237)">Buterin</text><g clip-path="url(#clip13)"><text fill="#FFFFFF" font-family="Calibri,Calibri_MSFontService,sans-serif" font-weight="400" font-size="27" transform="translate(127.267 278)">3</text></g><g clip-path="url(#clip14)"><text fill="#FFFFFF" font-family="Calibri,Calibri_MSFontService,sans-serif" font-weight="400" font-size="27" transform="translate(238.79 278)">Tether</text></g><text fill="#FFFFFF" font-family="Calibri,Calibri_MSFontService,sans-serif" font-weight="400" font-size="27" transform="translate(443.698 278)">USDT<tspan font-size="27" x="203.874" y="0">∞</tspan></text><g clip-path="url(#clip15)"><text fill="#FFFFFF" font-family="Calibri,Calibri_MSFontService,sans-serif" font-weight="400" font-size="27" transform="translate(768.627 278)">2014</text></g><text fill="#FFFFFF" font-family="Calibri,Calibri_MSFontService,sans-serif" font-weight="400" font-size="27" transform="translate(822.627 278)">-<tspan font-size="27" x="8.16669" y="0">07</tspan>-<tspan font-size="27" x="43.3334" y="0">20 </tspan></text><g clip-path="url(#clip16)"><text fill="#FFFFFF" font-family="Calibri,Calibri_MSFontService,sans-serif" font-weight="400" font-size="27" transform="translate(937.503 278)">Brock Pierce</text></g><g clip-path="url(#clip17)"><text fill="#FFFFFF" font-family="Calibri,Calibri_MSFontService,sans-serif" font-weight="400" font-size="27" transform="translate(127.267 320)">4</text></g><g clip-path="url(#clip18)"><text fill="#FFFFFF" font-family="Calibri,Calibri_MSFontService,sans-serif" font-weight="400" font-size="27" transform="translate(238.79 320)">USD Coin</text></g><text fill="#FFFFFF" font-family="Calibri,Calibri_MSFontService,sans-serif" font-weight="400" font-size="27" transform="translate(442.965 320)">USDC<tspan font-size="27" x="204.607" y="0">∞</tspan></text><g clip-path="url(#clip19)"><text fill="#FFFFFF" font-family="Calibri,Calibri_MSFontService,sans-serif" font-weight="400" font-size="27" transform="translate(768.627 320)">2018</text></g><text fill="#FFFFFF" font-family="Calibri,Calibri_MSFontService,sans-serif" font-weight="400" font-size="27" transform="translate(822.627 320)">-<tspan font-size="27" x="8.16669" y="0">05</tspan>-<tspan font-size="27" x="43.3334" y="0">15 </tspan></text><g clip-path="url(#clip20)"><text fill="#FFFFFF" font-family="Calibri,Calibri_MSFontService,sans-serif" font-weight="400" font-size="27" transform="translate(937.503 320)">Centre consortium</text></g><path d="M426 468.445 610.943 468.445 610.943 510.045 426 510.045Z" fill-rule="evenodd"/><path d="M610.943 468.445 824.667 468.445 824.667 510.045 610.943 510.045Z" fill-rule="evenodd"/><path d="M426 510.045 610.943 510.045 610.943 551.645 426 551.645Z" fill="#588937" fill-rule="evenodd"/><path d="M610.943 510.045 824.667 510.045 824.667 551.645 610.943 551.645Z" fill="#588937" fill-rule="evenodd"/><path d="M426 551.645 610.943 551.645 610.943 593.245 426 593.245Z" fill="#70AD47" fill-rule="evenodd"/><path d="M610.943 551.645 824.667 551.645 824.667 593.245 610.943 593.245Z" fill="#70AD47" fill-rule="evenodd"/><path d="M426 593.245 610.943 593.245 610.943 634.845 426 634.845Z" fill="#588937" fill-rule="evenodd"/><path d="M610.943 593.245 824.667 593.245 824.667 634.845 610.943 634.845Z" fill="#588937" fill-rule="evenodd"/><path d="M426 634.845 610.943 634.845 610.943 676.445 426 676.445Z" fill="#70AD47" fill-rule="evenodd"/><path d="M610.943 634.845 824.667 634.845 824.667 676.445 610.943 676.445Z" fill="#70AD47" fill-rule="evenodd"/><path d="M426 510.045 824.667 510.045" stroke="#FFFFFF" stroke-width="2.66667" stroke-linejoin="round" stroke-miterlimit="10" fill="none" fill-rule="evenodd"/><text fill="#FFFFFF" font-family="Calibri,Calibri_MSFontService,sans-serif" font-weight="700" font-size="27" transform="translate(465.151 498)">Key_code<tspan font-size="27" x="225.237" y="0">Price</tspan><tspan font-weight="400" font-size="27" x="33.0734" y="42">BTC</tspan><tspan font-weight="400" font-size="27" x="205.403" y="42">5128383</tspan><tspan font-weight="400" font-size="27" x="31.9867" y="83">ETH</tspan><tspan font-weight="400" font-size="27" x="212.153" y="83">362338</tspan><tspan font-weight="400" font-size="27" x="24.0533" y="125">USDT</tspan><tspan font-weight="400" font-size="27" x="239.153" y="125">78</tspan><tspan font-weight="400" font-size="27" x="23.32" y="167">USDC</tspan><tspan font-weight="400" font-size="27" x="239.153" y="167">87</tspan><tspan fill="#000000" font-weight="400" font-size="29" x="-337.885" y="-405">Crypto_chai</tspan><tspan fill="#000000" font-weight="400" font-size="29" x="-195.325" y="-405">n</tspan><tspan fill="#000000" font-weight="400" font-size="29" x="-37.5515" y="-64">Market</tspan></text></g></svg>